<?xml version="1.0" encoding="utf-8"?>
<!-- Generator: Adobe Illustrator 26.2.1, SVG Export Plug-In . SVG Version: 6.00 Build 0)  -->
<svg version="1.1" id="Layer_1" xmlns="http://www.w3.org/2000/svg" xmlns:xlink="http://www.w3.org/1999/xlink" x="0px" y="0px"
	 viewBox="0 0 2500 2148" style="enable-background:new 0 0 2500 2148;" xml:space="preserve">
<style type="text/css">
	.st0{fill:#621B1C;}
	.st1{fill:#C6302B;}
	.st2{fill:#912626;}
	.st3{fill:#9A2928;}
	.st4{fill:#FFFFFF;}
	.st5{fill-rule:evenodd;clip-rule:evenodd;fill:#C6302B;}
	.st6{fill:none;stroke:#009CE7;stroke-miterlimit:10;}
	.st7{fill:none;stroke:#009CE7;stroke-width:13;stroke-miterlimit:10;}
	.st8{fill:none;stroke:#C6302B;stroke-width:33;stroke-linecap:round;stroke-linejoin:round;stroke-miterlimit:10;}
	.st9{fill:none;stroke:#4A4D4E;stroke-width:33;stroke-linecap:round;stroke-linejoin:round;stroke-miterlimit:10;}
	.st10{fill-rule:evenodd;clip-rule:evenodd;fill:#FFFFFF;}
	.st11{font-family:'MyriadPro-Regular';}
	.st12{font-size:12px;}
</style>
<path class="st2" d="M2122.9,1510.9c-101.1,52.7-624.6,267.9-736.1,326.1c-111.5,58.1-173.4,57.6-261.4,15.5
	s-645.2-267.2-745.6-315.1c-50.2-24-76.5-44.2-76.5-63.3v-191.4c0,0,725.4-157.9,842.5-199.9s157.7-43.5,257.4-7
	c99.7,36.5,695.5,144,794,180.1v188.7C2197,1463.3,2174.3,1484.1,2122.9,1510.9"/>
<path class="st1" d="M2122.8,1320.6c-101.1,52.7-624.6,267.9-736.1,326s-173.4,57.6-261.4,15.5c-88.1-42.1-645.2-267.2-745.6-315.1
	c-100.4-48-102.5-81-3.9-119.6s652.7-256,769.8-298s157.7-43.5,257.4-7c99.7,36.5,620.1,243.6,718.6,279.7
	S2223.9,1267.9,2122.8,1320.6"/>
<path class="st2" d="M2122.9,1201.1c-101.1,52.7-624.6,267.9-736.1,326.1c-111.5,58.1-173.4,57.5-261.4,15.4
	c-88.1-42.1-645.2-267.2-745.6-315.1c-50.2-24-76.5-44.2-76.5-63.3V972.8c0,0,725.4-157.9,842.5-199.9s157.7-43.5,257.4-7
	c99.7,36.5,695.5,144,794,180.1v188.7C2197,1153.6,2174.3,1174.3,2122.9,1201.1"/>
<path class="st1" d="M2122.8,1010.8c-101.1,52.7-624.6,267.9-736.1,326.1c-111.5,58.1-173.4,57.5-261.4,15.4
	c-88.1-42.1-645.2-267.2-745.6-315.1c-100.4-48-102.5-81-3.9-119.6s652.7-256,769.8-298s157.7-43.5,257.4-7
	c99.7,36.5,620.1,243.6,718.6,279.7C2220.1,928.4,2223.9,958.2,2122.8,1010.8"/>
<path class="st2" d="M2122.9,879.9c-101.1,52.7-624.6,267.9-736.1,326.1c-111.5,58.1-173.4,57.5-261.4,15.4
	c-88.1-42.1-645.2-267.2-745.6-315.1c-50.2-24-76.5-44.2-76.5-63.3V651.5c0,0,725.4-157.9,842.5-199.9s157.7-43.5,257.4-7
	c99.7,36.5,695.5,144,794,180.1v188.7C2197,832.3,2174.3,853.1,2122.9,879.9"/>
<path class="st1" d="M2122.8,689.6c-101.1,52.7-624.6,267.9-736.1,326.1c-111.5,58.1-173.4,57.5-261.4,15.5
	c-88-42.1-645.2-267.2-745.5-315.1c-100.4-48-102.5-81-3.9-119.6s652.7-256,769.8-298s157.7-43.5,257.4-7
	c99.7,36.5,620.1,243.6,718.6,279.7C2220.1,607.2,2223.9,636.9,2122.8,689.6"/>
<path class="st0" d="M1674,527.4l257.7,101.8l-257.5,101.7L1674,527.4"/>
<path class="st3" d="M1388.9,640.1L1674,527.3l0.2,203.6l-28,10.9L1388.9,640.1"/>
<path class="st4" d="M1383,446c-2.8,3.6-6.5,6.7-11.4,8.8l-12,5.5l-7.9-17.7l-1.6-4l-7.9-17.7l12-5.5c10-4.6,20-3.5,22.5,2.4
	l8.1,18.3C1386.4,438.8,1385.4,442.5,1383,446z M1353.6,463.1l-7.9-17.7l-136.9,63.1c0.9,0.5,2,0.7,3.1,1c3.9,0.3,6.6,2.3,7.4,5.2
	c0.8,3,0,6.4-2.4,9.9c-0.5,0.7-1,1.5-1.1,2l0.4-0.2l92.1-42.6c6.2,7,7.9,14.1,5.3,21.4c-1.8,7.2-8.2,14.2-17,18.8
	c-20.7,10.9-54.8,10-82.8,6.4c-2.4-0.2-4.3-0.6-6.6-0.9c-5.5-0.6-10.4-1.7-15.2-2.5l17.1-0.2c0.6-1.3,1.2-2.3,1.9-3.2
	c1.8-2.1,2.5-4.5,2-6.6c-0.4-1.8-2.2-2.7-4.3-2.9c-2.6-0.3-4.7-1.3-6.1-3c-0.5-0.7-1-1.3-1.3-2.2c-0.2-0.6-0.4-1.2-0.2-2
	c-0.1-2.6,0.9-5.4,2.6-7.9c1.5-2.2,2.2-4.6,1.7-6.6c-0.5-1.5-2.2-2.7-4.3-2.9c-1.6-0.4-3.3-0.7-4.3-1.5l-30.1,34.1l-2.2,2.3
	c-0.5,0.7-0.9,1.8-0.7,2.4c0.5,0.1,0.9,0.5,1.2,0.5l0.8,0.2l0.5,0.1l7.1,1.5c24.8,5.4,90.4,17.1,125.5-1c10.7-5.5,18.4-14,20.7-22.7
	c2.7-8.4,1.2-16.3-5.3-24.2L1353.6,463.1z M1266.1,455.9l-0.6,0.4l-62,28.6l1.1,0.2c3.7,0.5,6.6,2.3,7.4,5.2c0.8,3,0,6.4-2.4,9.9
	c-1,1.5-1.6,2.7-1.9,4.1l136.5-62.9l-7.9-17.7l-63.2,28.9c-16.2-8.3-36-18.8-31.6-28.8c3.4-7.7,21.1-16.5,52.1-26
	c1.6-0.5,3-2.1,2.9-3.3c-0.1-1.2-1.9-1.8-3.5-1.3c-34.5,10.5-52.7,20-57.2,30.2C1230.3,435.5,1244.8,444.5,1266.1,455.9
	L1266.1,455.9z"/>
<path class="st4" d="M1263.8,750.7c-65.5-28.9-49.7,17-83.8,18.2c-32.3,1.1-67.7-47.7-100.9-14.1c-32.5,32.9-2.5,84.3,67,115
	c69.5,30.6,152.2,28.8,184.7-4C1363.3,832.8,1333.3,781.3,1263.8,750.7L1263.8,750.7z M1132.3,798.1c-9.8,5.2-26.3,2.1-36.9-6.9
	c-10.6-9-11.2-20.4-1.4-25.6c9.8-5.2,26.3-2.1,36.9,6.9C1141.5,781.5,1142.1,793,1132.3,798.1z M1131.7,845.5
	c-8.5-3.8-10.9-11.4-5.2-17.1c5.6-5.7,17.1-7.3,25.6-3.5c8.5,3.8,10.9,11.4,5.2,17.1C1151.7,847.6,1140.2,849.2,1131.7,845.5z
	 M1180.4,868.5c-8.5-3.8-10.9-11.4-5.2-17.1c5.6-5.7,17.1-7.3,25.6-3.5c8.5,3.8,10.9,11.4,5.2,17.1
	C1200.4,870.6,1188.9,872.2,1180.4,868.5z M1238.6,878.8c-8.5-3.8-10.9-11.4-5.2-17.1c5.6-5.7,17.1-7.3,25.6-3.5
	c8.5,3.8,10.9,11.4,5.2,17.1C1258.6,881,1247.1,882.5,1238.6,878.8z M1293.6,860.2c-8.5-3.8-10.9-11.4-5.2-17.1
	c5.6-5.7,17.1-7.3,25.6-3.5c8.5,3.8,10.9,11.4,5.2,17.1C1313.6,862.4,1302.2,864,1293.6,860.2z"/>
<g>
	<path class="st10" d="M919.3,634.7c11.6,10.6,31.7,17.1,50,8.4c19.3-9.2,7.5-33.3,27.7-41.7C965.6,583.1,883.8,602.3,919.3,634.7
		L919.3,634.7z M924.5,648.4l-176.4,78.9l-15.7-14.3l168.7-84.4c2.2,3.5,5.5,6.5,9.7,10.3C914.9,642.6,919,646.3,924.5,648.4
		L924.5,648.4z"/>
	<path class="st10" d="M817.3,632.3c7.4,6.7,20.2,10.8,31.8,5.3c12.3-5.8,4.8-21.2,17.6-26.5C846.7,599.5,794.7,611.7,817.3,632.3
		L817.3,632.3z M820.6,641l-112.1,50.1l-10-9.1l107.2-53.6c1.4,2.2,3.5,4.2,6.2,6.6C814.5,637.3,817.1,639.7,820.6,641L820.6,641z"
		/>
</g>
<text transform="matrix(1 0 0 1 1386.5 943)" class="st11 st12"> </text>
</svg>
